# xmcd
#
# Track frame offsets: 
#        150
#        13204
#        26378
#        40053
#        54305
#        66902
#        79816
#        93874
#        107158
#        120416
#        134328
#        145865
#        157562
#        171724
#        186123
#        198729
#        211289
#        224895
#
# Disc length: 3186 seconds
#
# Revision: 3
# Processed by: cddbd v1.5.2PL0 Copyright (c) Steve Scherf et al.
# Submitted via: ExactAudioCopy v0.99pb5
#
DISCID=030c7012
DTITLE=Various Artist - Southern Country Blues [CD3]
DYEAR=1997
DGENRE=Blues
TTITLE0=Henry Thomas  - Old Country Stomp
TTITLE1=Blind Lemon Jefferson - Matchbox Blues
TTITLE2=Blind Willie Johnson - God Moves on the Water
TTITLE3=Hattie Hudson - Doggone My Good Luck Soul
TTITLE4=Texas Alexander - Easy Rider Blues
TTITLE5=J.T. ''Funny Paper'' Smith - Howling Wolf Blues,  No 1
TTITLE6=Leadbelly - Four Day Worry Blues
TTITLE7=Buddy Boy Hawkins - A Rag
TTITLE8=King Solomon Hill - Down on My Bended Knee
TTITLE9=Amede Ardoin - Blues de Basile
TTITLE10=Oscar Woods - Don't Sell It, Don't Give It Away
TTITLE11=Lottie Beaman - Going Away Blues
TTITLE12=Henry Townsend - Henry's Worry Blues
TTITLE13=Lottie Johnson - Woke Up with the Blues in My Fingers
TTITLE14=Mary Johnson, Henry Brown and Ike Rogers - Room Rent Blues
TTITLE15=Charley Jordan - Keep It Clean
TTITLE16=Roosevelt Sykes - Poor Boy Blues
TTITLE17=Sparks Brothers - ''4-11-44''
EXTD=YEAR: 1997
EXTT0=
EXTT1=
EXTT2=
EXTT3=
EXTT4=
EXTT5=
EXTT6=
EXTT7=
EXTT8=
EXTT9=
EXTT10=
EXTT11=
EXTT12=
EXTT13=
EXTT14=
EXTT15=
EXTT16=
EXTT17=
PLAYORDER=
